<svg width="21" height="22" viewBox="0 0 21 22" fill="none" xmlns="http://www.w3.org/2000/svg">
<path d="M12.41 11L20.7 2.71C20.8638 2.5187 20.9494 2.27262 20.9397 2.02095C20.93 1.76927 20.8256 1.53053 20.6475 1.35244C20.4694 1.17434 20.2307 1.07001 19.979 1.06029C19.7274 1.05057 19.4813 1.13617 19.29 1.3L11 9.59L2.70997 1.29C2.52167 1.10169 2.26627 0.995907 1.99997 0.995907C1.73367 0.995907 1.47828 1.10169 1.28997 1.29C1.10167 1.4783 0.995881 1.7337 0.995881 2C0.995881 2.2663 1.10167 2.52169 1.28997 2.71L9.58997 11L1.28997 19.29C1.18529 19.3796 1.10027 19.49 1.04025 19.614C0.980225 19.7381 0.946494 19.8732 0.941175 20.0109C0.935855 20.1487 0.959061 20.286 1.00934 20.4143C1.05961 20.5426 1.13587 20.6592 1.23332 20.7566C1.33078 20.8541 1.44733 20.9304 1.57565 20.9806C1.70398 21.0309 1.84131 21.0541 1.97903 21.0488C2.11675 21.0435 2.25188 21.0097 2.37594 20.9497C2.50001 20.8897 2.61033 20.8047 2.69997 20.7L11 12.41L19.29 20.7C19.4813 20.8638 19.7274 20.9494 19.979 20.9397C20.2307 20.93 20.4694 20.8257 20.6475 20.6476C20.8256 20.4695 20.93 20.2307 20.9397 19.9791C20.9494 19.7274 20.8638 19.4813 20.7 19.29L12.41 11Z" fill="white"/>
</svg>
