<svg width="26" height="26" viewBox="0 0 26 26" fill="none" xmlns="http://www.w3.org/2000/svg">
<path d="M12.9331 6.28479C11.1702 6.28479 9.47955 6.9851 8.23299 8.23165C6.98644 9.47821 6.28613 11.1689 6.28613 12.9318C6.28613 14.6947 6.98644 16.3854 8.23299 17.6319C9.47955 18.8785 11.1702 19.5788 12.9331 19.5788C14.696 19.5788 16.3867 18.8785 17.6333 17.6319C18.8798 16.3854 19.5801 14.6947 19.5801 12.9318C19.5801 11.1689 18.8798 9.47821 17.6333 8.23165C16.3867 6.9851 14.696 6.28479 12.9331 6.28479V6.28479ZM12.9331 17.2486C11.7879 17.2486 10.6895 16.7936 9.87967 15.9838C9.06984 15.174 8.61488 14.0756 8.61488 12.9304C8.61488 11.7851 9.06984 10.6867 9.87967 9.87689C10.6895 9.06706 11.7879 8.6121 12.9331 8.6121C14.0784 8.6121 15.1768 9.06706 15.9866 9.87689C16.7964 10.6867 17.2514 11.7851 17.2514 12.9304C17.2514 14.0756 16.7964 15.174 15.9866 15.9838C15.1768 16.7936 14.0784 17.2486 12.9331 17.2486V17.2486Z" fill="#777D94"/>
<path d="M19.8433 7.59003C20.6992 7.59003 21.393 6.89624 21.393 6.04041C21.393 5.18457 20.6992 4.49078 19.8433 4.49078C18.9875 4.49078 18.2937 5.18457 18.2937 6.04041C18.2937 6.89624 18.9875 7.59003 19.8433 7.59003Z" fill="#777D94"/>
<path d="M25.2008 4.46487C24.868 3.60551 24.3595 2.82509 23.7077 2.17358C23.056 1.52208 22.2754 1.01383 21.4159 0.681375C20.4101 0.303826 19.3476 0.0996779 18.2735 0.0776249C16.8892 0.0172499 16.4508 0 12.9404 0C9.43 0 8.98006 -1.44588e-07 7.60725 0.0776249C6.534 0.0985503 5.47221 0.30274 4.46775 0.681375C3.60803 1.01344 2.82722 1.52155 2.17542 2.17311C1.52361 2.82467 1.0152 3.60528 0.682812 4.46487C0.305188 5.47057 0.101508 6.5332 0.0805 7.60725C0.0186875 8.99012 0 9.42856 0 12.9404C0 16.4507 -1.07102e-08 16.8978 0.0805 18.2735C0.102062 19.3487 0.30475 20.4096 0.682812 21.4173C1.01614 22.2766 1.52504 23.0569 2.177 23.7084C2.82897 24.3598 3.60965 24.8681 4.46919 25.2008C5.47175 25.5935 6.53397 25.8123 7.61013 25.8477C8.99444 25.9081 9.43288 25.9267 12.9433 25.9267C16.4536 25.9267 16.9036 25.9267 18.2764 25.8477C19.3503 25.8258 20.4128 25.6222 21.4188 25.2454C22.278 24.9121 23.0584 24.4035 23.7101 23.7518C24.3618 23.1001 24.8705 22.3197 25.2037 21.4604C25.5818 20.4542 25.7844 19.3933 25.806 18.3181C25.8678 16.9352 25.8865 16.4968 25.8865 12.9849C25.8865 9.47312 25.8865 9.0275 25.806 7.65181C25.7893 6.56258 25.5845 5.48442 25.2008 4.46487V4.46487ZM23.4499 18.1671C23.4407 18.9956 23.2895 19.8163 23.0029 20.5936C22.787 21.1526 22.4565 21.6603 22.0327 22.0838C21.6088 22.5074 21.101 22.8376 20.5419 23.0532C19.7731 23.3385 18.9611 23.4897 18.1413 23.5002C16.7756 23.5635 16.3904 23.5793 12.8886 23.5793C9.384 23.5793 9.02606 23.5793 7.63456 23.5002C6.81508 23.4902 6.00347 23.339 5.23538 23.0532C4.6743 22.839 4.16444 22.5094 3.73878 22.0857C3.31312 21.662 2.98114 21.1537 2.76431 20.5936C2.48177 19.8246 2.33064 19.0136 2.31725 18.1944C2.25544 16.8288 2.24106 16.4436 2.24106 12.9418C2.24106 9.43863 2.24106 9.08069 2.31725 7.68775C2.32654 6.85978 2.47775 6.03954 2.76431 5.26269C3.20275 4.1285 4.10119 3.23581 5.23538 2.80169C6.00385 2.51726 6.81522 2.36607 7.63456 2.35463C9.00163 2.29281 9.38544 2.27556 12.8886 2.27556C16.3918 2.27556 16.7512 2.27556 18.1413 2.35463C18.9612 2.36449 19.7733 2.51573 20.5419 2.80169C21.101 3.0177 21.6087 3.34823 22.0325 3.77204C22.4563 4.19586 22.7869 4.7036 23.0029 5.26269C23.2854 6.03168 23.4366 6.84273 23.4499 7.66187C23.5118 9.02894 23.5276 9.41275 23.5276 12.9159C23.5276 16.4177 23.5276 16.7943 23.4658 18.1686H23.4499V18.1671Z" fill="#777D94"/>
</svg>
