<svg width="90" height="90" viewBox="0 0 90 90" fill="none" xmlns="http://www.w3.org/2000/svg">
<path fill-rule="evenodd" clip-rule="evenodd" d="M46.1022 29.3324C46.2186 29.4486 46.311 29.5865 46.374 29.7384C46.437 29.8902 46.4694 30.053 46.4694 30.2174C46.4694 30.3819 46.437 30.5447 46.374 30.6965C46.311 30.8484 46.2186 30.9863 46.1022 31.1024L31.9847 45.2174L46.1022 59.3324C46.3369 59.5672 46.4688 59.8855 46.4688 60.2174C46.4688 60.5494 46.3369 60.8677 46.1022 61.1025C45.8675 61.3372 45.5491 61.469 45.2172 61.469C44.8853 61.469 44.5669 61.3372 44.3322 61.1025L29.3322 46.1024C29.2158 45.9863 29.1234 45.8484 29.0604 45.6965C28.9974 45.5447 28.965 45.3819 28.965 45.2174C28.965 45.053 28.9974 44.8902 29.0604 44.7384C29.1234 44.5865 29.2158 44.4486 29.3322 44.3324L44.3322 29.3324C44.4483 29.216 44.5863 29.1237 44.7381 29.0607C44.89 28.9976 45.0528 28.9652 45.2172 28.9652C45.3816 28.9652 45.5444 28.9976 45.6963 29.0607C45.8482 29.1237 45.9861 29.216 46.1022 29.3324V29.3324Z" fill="white"/>
<path fill-rule="evenodd" clip-rule="evenodd" d="M55.7806 29.3324C55.897 29.4486 55.9893 29.5865 56.0524 29.7384C56.1154 29.8902 56.1478 30.053 56.1478 30.2174C56.1478 30.3819 56.1154 30.5447 56.0524 30.6965C55.9893 30.8484 55.897 30.9863 55.7806 31.1024L41.6631 45.2174L55.7806 59.3324C55.8968 59.4487 55.989 59.5866 56.0519 59.7385C56.1148 59.8903 56.1472 60.0531 56.1472 60.2174C56.1472 60.3818 56.1148 60.5446 56.0519 60.6964C55.989 60.8483 55.8968 60.9862 55.7806 61.1025C55.6644 61.2187 55.5264 61.3109 55.3745 61.3738C55.2227 61.4367 55.0599 61.469 54.8956 61.469C54.7312 61.469 54.5685 61.4367 54.4166 61.3738C54.2648 61.3109 54.1268 61.2187 54.0106 61.1025L39.0106 46.1024C38.8942 45.9863 38.8018 45.8484 38.7388 45.6965C38.6758 45.5447 38.6433 45.3819 38.6433 45.2174C38.6433 45.053 38.6758 44.8902 38.7388 44.7384C38.8018 44.5865 38.8942 44.4486 39.0106 44.3324L54.0106 29.3324C54.1267 29.216 54.2646 29.1237 54.4165 29.0607C54.5684 28.9976 54.7312 28.9652 54.8956 28.9652C55.06 28.9652 55.2228 28.9976 55.3747 29.0607C55.5265 29.1237 55.6645 29.216 55.7806 29.3324V29.3324Z" fill="white"/>
<rect x="2.12132" y="45" width="60.6396" height="60.6396" transform="rotate(-45 2.12132 45)" stroke="white" stroke-width="3"/>
</svg>
