<svg width="30" height="22" viewBox="0 0 30 22" fill="none" xmlns="http://www.w3.org/2000/svg">
<path d="M29 22H1C0.734784 22 0.48043 21.8946 0.292893 21.7071C0.105357 21.5196 0 21.2652 0 21C0 20.7348 0.105357 20.4804 0.292893 20.2929C0.48043 20.1054 0.734784 20 1 20H29C29.2652 20 29.5196 20.1054 29.7071 20.2929C29.8946 20.4804 30 20.7348 30 21C30 21.2652 29.8946 21.5196 29.7071 21.7071C29.5196 21.8946 29.2652 22 29 22Z" fill="white"/>
<path d="M29 12H1C0.734784 12 0.48043 11.8946 0.292893 11.7071C0.105357 11.5196 0 11.2652 0 11C0 10.7348 0.105357 10.4804 0.292893 10.2929C0.48043 10.1054 0.734784 10 1 10H29C29.2652 10 29.5196 10.1054 29.7071 10.2929C29.8946 10.4804 30 10.7348 30 11C30 11.2652 29.8946 11.5196 29.7071 11.7071C29.5196 11.8946 29.2652 12 29 12Z" fill="white"/>
<path d="M29 2H1C0.734784 2 0.48043 1.89464 0.292893 1.70711C0.105357 1.51957 0 1.26522 0 1C0 0.734784 0.105357 0.48043 0.292893 0.292893C0.48043 0.105357 0.734784 0 1 0H29C29.2652 0 29.5196 0.105357 29.7071 0.292893C29.8946 0.48043 30 0.734784 30 1C30 1.26522 29.8946 1.51957 29.7071 1.70711C29.5196 1.89464 29.2652 2 29 2Z" fill="white"/>
</svg>
