<svg width="90" height="90" viewBox="0 0 90 90" fill="none" xmlns="http://www.w3.org/2000/svg">
<path fill-rule="evenodd" clip-rule="evenodd" d="M43.9534 31.3645C43.8528 31.4649 43.773 31.5841 43.7185 31.7154C43.6641 31.8466 43.636 31.9873 43.636 32.1294C43.636 32.2715 43.6641 32.4122 43.7185 32.5435C43.773 32.6748 43.8528 32.794 43.9534 32.8943L56.1552 45.0939L43.9534 57.2935C43.7506 57.4964 43.6366 57.7716 43.6366 58.0584C43.6366 58.3453 43.7506 58.6205 43.9534 58.8234C44.1563 59.0262 44.4315 59.1402 44.7183 59.1402C45.0052 59.1402 45.2804 59.0262 45.4833 58.8234L58.4478 45.8588C58.5484 45.7585 58.6282 45.6393 58.6827 45.508C58.7371 45.3768 58.7652 45.236 58.7652 45.0939C58.7652 44.9518 58.7371 44.8111 58.6827 44.6799C58.6282 44.5486 58.5484 44.4294 58.4478 44.329L45.4833 31.3645C45.3829 31.2639 45.2637 31.1841 45.1324 31.1296C45.0012 31.0752 44.8605 31.0471 44.7183 31.0471C44.5762 31.0471 44.4355 31.0752 44.3043 31.1296C44.173 31.1841 44.0538 31.2639 43.9534 31.3645V31.3645Z" fill="white"/>
<path fill-rule="evenodd" clip-rule="evenodd" d="M35.5884 31.3645C35.4878 31.4649 35.408 31.5841 35.3535 31.7154C35.2991 31.8466 35.271 31.9873 35.271 32.1294C35.271 32.2715 35.2991 32.4122 35.3535 32.5435C35.408 32.6748 35.4878 32.794 35.5884 32.8943L47.7902 45.0939L35.5884 57.2935C35.488 57.394 35.4083 57.5132 35.3539 57.6445C35.2996 57.7757 35.2716 57.9164 35.2716 58.0584C35.2716 58.2005 35.2996 58.3412 35.3539 58.4724C35.4083 58.6037 35.488 58.7229 35.5884 58.8234C35.6889 58.9238 35.8081 59.0035 35.9394 59.0578C36.0706 59.1122 36.2113 59.1402 36.3533 59.1402C36.4954 59.1402 36.636 59.1122 36.7673 59.0578C36.8985 59.0035 37.0178 58.9238 37.1182 58.8234L50.0827 45.8588C50.1834 45.7585 50.2632 45.6393 50.3176 45.508C50.3721 45.3768 50.4001 45.236 50.4001 45.0939C50.4001 44.9518 50.3721 44.8111 50.3176 44.6799C50.2632 44.5486 50.1834 44.4294 50.0827 44.329L37.1182 31.3645C37.0179 31.2639 36.8987 31.1841 36.7674 31.1296C36.6361 31.0752 36.4954 31.0471 36.3533 31.0471C36.2112 31.0471 36.0705 31.0752 35.9393 31.1296C35.808 31.1841 35.6888 31.2639 35.5884 31.3645V31.3645Z" fill="white"/>
<rect x="-2.12132" width="60.6396" height="60.6396" transform="matrix(-0.707107 -0.707107 -0.707107 0.707107 86.3787 43.5)" stroke="white" stroke-width="3"/>
</svg>
