<svg width="22" height="18" viewBox="0 0 22 18" fill="none" xmlns="http://www.w3.org/2000/svg">
<path d="M6.92 17.9997C8.60914 18.0104 10.2836 17.6833 11.8462 17.0374C13.4088 16.3915 14.8285 15.4396 16.0229 14.237C17.2174 13.0343 18.1627 11.6049 18.8043 10.0315C19.4458 8.45817 19.7706 6.77222 19.76 5.07146V4.47741C20.6356 3.83149 21.3935 3.03775 22 2.13139C21.1755 2.49446 20.3031 2.73526 19.41 2.84627C20.3569 2.27817 21.0674 1.38395 21.41 0.32908C20.5275 0.862161 19.5598 1.23691 18.55 1.43664C17.8699 0.707028 16.97 0.223415 15.9895 0.0606334C15.0089 -0.102148 14.0024 0.0649767 13.1257 0.536149C12.249 1.00732 11.551 1.75627 11.1396 2.66712C10.7282 3.57797 10.6264 4.59994 10.85 5.5749C9.05603 5.48624 7.30071 5.01812 5.69836 4.20103C4.096 3.38393 2.68254 2.23618 1.55 0.832518C0.978923 1.83051 0.805827 3.00971 1.06576 4.13137C1.32569 5.25302 1.99923 6.23332 2.95 6.87377C2.24861 6.84653 1.56345 6.65337 0.95 6.30992V6.36026C0.943767 7.40322 1.29272 8.41682 1.9387 9.23214C2.58469 10.0475 3.48867 10.6152 4.5 10.8409C3.84764 11.0175 3.16429 11.045 2.5 10.9214C2.79279 11.8109 3.35168 12.5874 4.10005 13.1444C4.84841 13.7014 5.74959 14.0117 6.68 14.0327C5.08921 15.322 3.11209 16.0317 1.07 16.0464C0.711953 16.036 0.354747 16.0057 0 15.9558C2.06696 17.2817 4.4692 17.9808 6.92 17.9695" fill="#777D94"/>
</svg>
